# xmcd CD database file generated by Grip 3.2.0
# 
# Track frame offsets:
#       187
#       29540
#       45450
#       73282
#       84825
#       97162
#       143332
#       169527
#       182050
#       193735
#       212782
#       251450
#       266087
#       278635
#       290577
#       311297
# 
# Disc length: 4486 seconds
# 
# Revision: 6
# Processed by: cddbd v1.5.1PL2 Copyright (c) Steve Scherf et al.
# Submitted via: Grip 3.2.0
# 
DISCID=e6118410
DTITLE=B.B. King - King of the Blues 1966-1969 [disc 2(4)]
DYEAR=1992
DGENRE=Blues
TTITLE0=Goin' Down Slow
TTITLE1=Tired Of Your Jive
TTITLE2=Sweet Sixteen - Parts 1 and 2
TTITLE3=Paying The Cost To Be The Boss
TTITLE4=I'm Gonna Do What They Do To Me
TTITLE5=Lucille
TTITLE6=Watch Yourself
TTITLE7=You Put It On Me
TTITLE8=Get Myself Somebody
TTITLE9=I Want You So Bad
TTITLE10=Why I Sing The Blues
TTITLE11=Get Off My Back Woman
TTITLE12=Please Accept My Love
TTITLE13=Fools Get Wise
TTITLE14=No Good
TTITLE15=So Excited
EXTD=
EXTT0=
EXTT1=
EXTT2=
EXTT3=
EXTT4=
EXTT5=
EXTT6=
EXTT7=
EXTT8=
EXTT9=
EXTT10=
EXTT11=
EXTT12=
EXTT13=
EXTT14=
EXTT15=
PLAYORDER=
